<?xml version="1.0" encoding="utf-8"?>
<!-- Generator: Adobe Illustrator 21.1.0, SVG Export Plug-In . SVG Version: 6.00 Build 0)  -->
<svg version="1.1" id="Layer_3" xmlns="http://www.w3.org/2000/svg" xmlns:xlink="http://www.w3.org/1999/xlink" x="0px" y="0px"
	 viewBox="0 0 512 512" style="enable-background:new 0 0 512 512;" xml:space="preserve">
<style type="text/css">
	.st0{fill:#FFFFFF;}
	.st1{fill:#21C0F7;}
</style>
<g>
	<circle class="st0" cx="256" cy="256" r="236"/>
</g>
<g>
	<path class="st1" d="M304.9,268.6h12.6V256h6.3c2.1,0,4.3-0.2,6.3-0.6v13.2h12.6v-19.1c7.6-5.8,12.6-14.8,12.6-25.1
		c0-10.3-5-19.5-12.6-25.2c7.6-5.8,12.6-14.9,12.6-25.2c0-10.2-5-19.3-12.6-25.1v-19.1h-12.6v13.2c-2-0.4-4.2-0.6-6.3-0.6h-6.3
		v-12.6h-12.6v12.6h-12.6V256h12.6V268.6z M304.9,155.1h18.9c10.4,0,18.9,8.5,18.9,18.9c0,10.4-8.5,18.9-18.9,18.9h-18.9V155.1z
		 M304.9,205.6h18.9c10.4,0,18.9,8.5,18.9,18.9s-8.5,18.9-18.9,18.9h-18.9V205.6z"/>
	<path class="st1" d="M197.7,281.2c10.4,0,18.9,8.5,18.9,18.9h12.6c0-15.2-10.9-28-25.2-30.9V256h-12.6v12.6h-25.2v31.5
		c0,17.4,14.1,31.5,31.5,31.5c10.4,0,18.9,8.5,18.9,18.9v18.9h-18.9c-10.4,0-18.9-8.5-18.9-18.9h-12.6c0,15.2,10.9,28,25.2,30.9
		v13.2H204v-12.6h25.2v-31.5c0-17.4-14.1-31.5-31.5-31.5c-10.4,0-18.9-8.5-18.9-18.9v-18.9H197.7z"/>
	<path class="st1" d="M323.8,293.8c52.2,0,94.6-42.4,94.6-94.6s-42.4-94.6-94.6-94.6s-94.6,42.4-94.6,94.6S271.6,293.8,323.8,293.8z
		 M323.8,117.3c45.2,0,81.9,36.8,81.9,81.9s-36.8,81.9-81.9,81.9s-81.9-36.8-81.9-81.9S278.6,117.3,323.8,117.3z"/>
	<path class="st1" d="M317.2,318.7c2.2,0.1,4.3,0.3,6.5,0.3c66,0,119.8-53.7,119.8-119.8S389.8,79.5,323.8,79.5S204,133.2,204,199.3
		c0,2.2,0.2,4.3,0.3,6.5c-2.3-0.2-4.5-0.2-6.6-0.2c-66,0-119.8,53.7-119.8,119.8s53.7,119.8,119.8,119.8s119.8-53.7,119.8-119.8
		C317.5,323.2,317.4,321,317.2,318.7L317.2,318.7z M323.8,92.1c59.1,0,107.2,48.1,107.2,107.2s-48.1,107.2-107.2,107.2
		s-107.2-48.1-107.2-107.2S264.7,92.1,323.8,92.1z M279.6,325.3c0,45.2-36.8,81.9-81.9,81.9s-81.9-36.8-81.9-81.9
		s36.8-81.9,81.9-81.9c5,0,10.2,0.6,15.4,1.7c12.1,29.2,35.6,52.7,64.9,64.9C279,315.1,279.6,320.3,279.6,325.3z M197.7,432.5
		c-59.1,0-107.2-48.1-107.2-107.2s48.1-107.2,107.2-107.2c2.5,0,5.2,0.2,8,0.4c0.7,4.4,1.7,8.7,2.8,12.9c-3.6-0.5-7.2-0.6-10.8-0.6
		c-52.2,0-94.6,42.4-94.6,94.6s42.4,94.6,94.6,94.6s94.6-42.4,94.6-94.6c0-3.5-0.2-7.2-0.6-10.8c4.2,1.2,8.5,2.1,12.9,2.8
		c0.2,2.8,0.4,5.5,0.4,8C304.9,384.4,256.8,432.5,197.7,432.5z"/>
	<path class="st1" d="M454.3,336.1l-8.9-8.9L359,413.6l8.7,8.7l-42.2,8.4l8.4-42.2l8.7,8.7l86.4-86.4l-8.9-8.9l-77.5,77.5L326.2,363
		l-16.8,83.8l83.8-16.8l-16.5-16.5L454.3,336.1z"/>
	<path class="st1" d="M153.9,102.3l42.2-8.4l-8.4,42.2l-8.7-8.7l-86.6,86.4l8.9,8.9l77.6-77.5l16.5,16.5l16.8-83.8l-83.8,16.9
		l16.5,16.5l-77.6,77.5l8.9,8.9l86.6-86.4L153.9,102.3z"/>
	<path class="st1" d="M436.4,374l8.9-8.9l8.9,8.9l-8.9,8.9L436.4,374z"/>
	<path class="st1" d="M418.6,391.8l8.9-8.9l8.9,8.9l-8.9,8.9L418.6,391.8z"/>
	<path class="st1" d="M401.2,409.1l8.4-8.4l8.9,8.9l-8.4,8.4L401.2,409.1z"/>
	<path class="st1" d="M102.3,115.5l8.9-8.9l8.9,8.9l-8.9,8.9L102.3,115.5z"/>
	<path class="st1" d="M67.1,150.6l8.4-8.4l8.9,8.9l-8.4,8.4L67.1,150.6z"/>
	<path class="st1" d="M84.5,133.3l8.9-8.9l8.9,8.9l-8.9,8.9L84.5,133.3z"/>
</g>
</svg>
