<?xml version="1.0" encoding="utf-8"?>
<!-- Generator: Adobe Illustrator 21.1.0, SVG Export Plug-In . SVG Version: 6.00 Build 0)  -->
<svg version="1.1" id="Layer_3" xmlns="http://www.w3.org/2000/svg" xmlns:xlink="http://www.w3.org/1999/xlink" x="0px" y="0px"
	 viewBox="0 0 512 512" style="enable-background:new 0 0 512 512;" xml:space="preserve">
<style type="text/css">
	.st0{fill:#FFFFFF;}
	.st1{fill:#21C0F7;}
</style>
<circle class="st0" cx="254" cy="257.8" r="252"/>
<g>
	<path class="st1" d="M251.2,220.8l6.8,6.8l-8.7,8.7l9.6,9.6l9-9c3.6,2.7,7.9,4.2,12.5,4.2c11.4,0,20.7-9,21.1-20.3
		c11.3-0.4,20.3-9.7,20.3-21.1c0-4.6-1.5-8.9-4.2-12.5l9-9l-9.6-9.6l-8.7,8.7l-6.8-6.8L251.2,220.8z M280.2,227.5
		c-2,0-3.9-0.8-5.4-2.2l-4.5-4.5l10.7-10.7l4.5,4.5c1.4,1.4,2.2,3.3,2.2,5.4C287.8,224.1,284.4,227.5,280.2,227.5z M300.5,207.2
		c-2,0-3.9-0.8-5.4-2.2l-4.5-4.5l10.7-10.7l4.5,4.5c1.4,1.4,2.2,3.3,2.2,5.4C308.1,203.8,304.7,207.2,300.5,207.2z"/>
	<path class="st1" d="M213.4,207.2c0,41,33.4,74.4,74.4,74.4s74.4-33.4,74.4-74.4s-33.4-74.4-74.4-74.4S213.4,166.2,213.4,207.2z
		 M348.7,207.2c0,33.6-27.3,60.9-60.9,60.9s-60.9-27.3-60.9-60.9s27.3-60.9,60.9-60.9S348.7,173.7,348.7,207.2z"/>
	<path class="st1" d="M472.2,250.3L472.2,250.3l-183.8-187c-7.3-7.4-17.4-11.7-27.8-11.7c-10.4,0-20.2,4.1-27.6,11.4L89.5,206.5
		c-7.4,7.4-11.4,17.2-11.4,27.9c0,10.4,4.1,20.2,11.4,27.6l37,37c-35.9,11.1-62,44.6-62,84c0,48.5,39.5,87.9,87.9,87.9
		c39.5,0,72.9-26.1,84-62l26.2,26.2l38.6,38.6l172.3-172.3c6.7-6.7,10.4-15.6,10.4-25.1C484,266.1,479.4,256.8,472.2,250.3
		L472.2,250.3z M422,218.4L267.5,367c-1.8,1.7-4.1,2.6-6.9,2.6c-2.5,0-4.9-1-6.6-2.7l-17.6-17.6l5.9-5.9
		c7.3-7.3,11.5-17.5,11.5-27.9c0-10.4-4.2-20.5-11.5-27.9l-35-35c-7.4-7.4-17.3-11.5-27.9-11.5s-20.4,4.1-27.9,11.5l-9.3,9.3
		L121.4,241c-1.7-1.7-2.7-4.1-2.7-6.6c0-2.5,1-5,2.9-6.7l159.1-153L422,218.4z M91.6,234.1c0-6.8,2.7-13.2,7.5-18L242.6,72.6
		c4.8-4.8,11.2-7.5,18-7.5c3,0,5.9,0.6,8.7,1.6L112.2,217.9c-4.5,4.3-7,10.3-7,16.5c0,6,2.4,11.9,6.7,16.2l20.9,20.9l-7.3,7.3
		l-26.4-26.4C94.3,247.7,91.6,241.3,91.6,234.1L91.6,234.1z M135,288.4l26.2-26.2c9.8-9.8,26.8-9.8,36.6,0l35,35
		c4.8,4.8,7.6,11.5,7.6,18.3c0,6.8-2.8,13.5-7.6,18.3l-4.7,4.7c-15.3-25.9-43.5-43.3-75.6-43.3c-3.4,0-6.8,0.2-10.1,0.6L135,288.4z
		 M152.5,457.5c-41,0-74.4-33.4-74.4-74.4s33.4-74.4,74.4-74.4s74.4,33.4,74.4,74.4S193.6,457.5,152.5,457.5z M239.6,371.5l4.9,4.9
		c4.3,4.3,10.1,6.7,16.5,6.7c5.9,0,11.6-2.3,15.9-6.4l154.6-148.7l13.1,13.4c-8,0.9-15.4,4.2-21.2,10L260.8,414.2l-20.9-20.9
		c0.4-3.3,0.6-6.7,0.6-10.1C240.5,379.2,240.1,375.3,239.6,371.5L239.6,371.5z M296.6,450l-21.5-21.5l25-3.6L296.6,450z
		 M304.9,410.6l-25,3.6l143.2-143.2l10.7,10.7L304.9,410.6z M464.1,292L310.9,445.2l3.6-25L453,281.7l-20.3-20.3l0.3-0.3
		c4.1-4.1,9.7-6.4,15.5-6.4c12.1,0,21.9,9.8,21.9,21.9C470.5,282.4,468.2,287.9,464.1,292L464.1,292z"/>
	<path class="st1" d="M159.3,335.8v-13.5h-13.5v13.5h-13.5v94.7h13.5V444h13.5v-13.5c14.9,0,27.1-12.1,27.1-27.1
		c0-8.1-3.6-15.3-9.2-20.3c5.6-5,9.2-12.2,9.2-20.3C186.3,347.9,174.2,335.8,159.3,335.8z M159.3,417h-13.5v-27.1h13.5
		c7.5,0,13.5,6.1,13.5,13.5S166.8,417,159.3,417z M159.3,376.4h-13.5v-27.1h13.5c7.5,0,13.5,6.1,13.5,13.5S166.8,376.4,159.3,376.4z
		"/>
	<circle class="st1" cx="281.1" cy="99" r="6.8"/>
	<circle class="st1" cx="139" cy="234.3" r="6.8"/>
	<circle class="st1" cx="396.1" cy="220.8" r="6.8"/>
	<circle class="st1" cx="260.8" cy="349.3" r="6.8"/>
</g>
</svg>
