<?xml version="1.0" encoding="utf-8"?>
<!-- Generator: Adobe Illustrator 21.1.0, SVG Export Plug-In . SVG Version: 6.00 Build 0)  -->
<svg version="1.1" id="OBJECTS" xmlns="http://www.w3.org/2000/svg" xmlns:xlink="http://www.w3.org/1999/xlink" x="0px" y="0px"
	 viewBox="0 0 1920 1080" style="enable-background:new 0 0 1920 1080;" xml:space="preserve">
<style type="text/css">
	.st0{clip-path:url(#SVGID_3_);fill:url(#SVGID_4_);}
	.st1{opacity:9.000000e-02;clip-path:url(#SVGID_3_);fill:url(#SVGID_5_);}
	.st2{opacity:9.000000e-02;clip-path:url(#SVGID_3_);fill:url(#SVGID_6_);}
	.st3{opacity:9.000000e-02;clip-path:url(#SVGID_3_);fill:url(#SVGID_7_);}
	.st4{opacity:0.12;clip-path:url(#SVGID_3_);fill:url(#SVGID_8_);}
	.st5{clip-path:url(#SVGID_3_);}
	.st6{fill:url(#SVGID_9_);}
	.st7{fill:url(#SVGID_10_);}
	.st8{fill:url(#SVGID_11_);}
	.st9{fill:url(#SVGID_12_);}
	.st10{fill:url(#SVGID_13_);}
	.st11{fill:url(#SVGID_14_);}
	.st12{fill:url(#SVGID_15_);}
	.st13{fill:url(#SVGID_16_);}
	.st14{fill:url(#SVGID_17_);}
	.st15{fill:url(#SVGID_18_);}
	.st16{fill:url(#SVGID_19_);}
	.st17{fill:url(#SVGID_20_);}
	.st18{fill:url(#SVGID_21_);}
	.st19{fill:url(#SVGID_22_);}
	.st20{fill:url(#SVGID_23_);}
	.st21{fill:url(#SVGID_24_);}
	.st22{fill:url(#SVGID_25_);}
	.st23{fill:url(#SVGID_26_);}
	.st24{fill:url(#SVGID_27_);}
	.st25{fill:url(#SVGID_28_);}
	.st26{fill:url(#SVGID_29_);}
</style>
<g>
	<defs>
		<rect id="SVGID_1_" x="-6.8" y="-62.8" width="1933.5" height="1208.5"/>
	</defs>
	<linearGradient id="SVGID_2_" gradientUnits="userSpaceOnUse" x1="-6.7666" y1="541.4459" x2="1926.7654" y2="541.4459">
		<stop  offset="6.413200e-04" style="stop-color:#2F046B"/>
		<stop  offset="0.9969" style="stop-color:#6078DB"/>
	</linearGradient>
	<use xlink:href="#SVGID_1_"  style="overflow:visible;fill:url(#SVGID_2_);"/>
	<clipPath id="SVGID_3_">
		<use xlink:href="#SVGID_1_"  style="overflow:visible;"/>
	</clipPath>
	<linearGradient id="SVGID_4_" gradientUnits="userSpaceOnUse" x1="537.8525" y1="1057.2686" x2="1600.4948" y2="-162.158">
		<stop  offset="6.413202e-04" style="stop-color:#2F7CEE"/>
		<stop  offset="0.9969" style="stop-color:#6089DB"/>
	</linearGradient>
	<rect x="-6.8" class="st0" width="1933.5" height="1145.7"/>
	<linearGradient id="SVGID_5_" gradientUnits="userSpaceOnUse" x1="1312.5797" y1="1532.8495" x2="2215.6577" y2="496.5296">
		<stop  offset="6.413200e-04" style="stop-color:#2F046B"/>
		<stop  offset="0.9969" style="stop-color:#60E8DB"/>
	</linearGradient>
	<path class="st1" d="M1697.4,992.7c-104.6,46.3-207,97.1-310.3,146.2c-4.7,2.2-9.3,4.5-14,6.7h553.6V903.3
		C1848.9,929.3,1772.6,959.4,1697.4,992.7z"/>
	<linearGradient id="SVGID_6_" gradientUnits="userSpaceOnUse" x1="303.4184" y1="784.4079" x2="1347.6326" y2="-413.8717">
		<stop  offset="6.413200e-04" style="stop-color:#2F046B"/>
		<stop  offset="0.9969" style="stop-color:#60E8DB"/>
	</linearGradient>
	<path class="st2" d="M750.1,745.7c-37.8,131.7-74.1,264.3-87.6,400h320.9c-7.9-27.5-7-57.9-4.1-85.3c4.5-41.3,14.9-81.5,25.1-121.8
		c14.7-58,26.6-116.5,41.9-174.3c32.7-123.3,66.9-245.6,90.7-370.9c18.3-96.5,43.2-213.7-13.2-303.2c-28.3-44.9-72.5-72.6-122-91.4
		H-6.8v238.4c138.6-24,384.9-53,546.6-43.7c107.9,6.2,241.7,21.1,276.5,136.6c15.9,52.7,9,109.5-1.5,162.5
		C797.9,577.9,774.2,661.9,750.1,745.7z"/>
	<linearGradient id="SVGID_7_" gradientUnits="userSpaceOnUse" x1="1050.4512" y1="884.3876" x2="1821.4386" y2="-0.3527">
		<stop  offset="6.413200e-04" style="stop-color:#2F046B"/>
		<stop  offset="0.9969" style="stop-color:#60E8DB"/>
	</linearGradient>
	<path class="st3" d="M1356.3,20.8c51.3,38.3,75.8,94.4,77.4,154c1.9,73.7-27.4,145.3-57.4,212.5c-28.2,63.4-59,126.2-76.9,192.9
		c-7.4,27.5-10.1,61.1,25.2,72.4c27.6,8.9,60.8-1.8,86.6-11c29.6-10.5,57.5-24.3,85.5-37.9c31.6-15.4,64.4-28.6,97-42
		c85-35,171.2-67.7,258.9-96.9c24.6-8.2,49.4-16.1,74.2-23.7V2.8h-598C1338.3,8.3,1347.5,14.3,1356.3,20.8z"/>
	<linearGradient id="SVGID_8_" gradientUnits="userSpaceOnUse" x1="216.4371" y1="877.9105" x2="1088.9535" y2="-123.3388">
		<stop  offset="6.413200e-04" style="stop-color:#2F046B"/>
		<stop  offset="0.9969" style="stop-color:#60E8DB"/>
	</linearGradient>
	<path class="st4" d="M424.5,1145.1c-2.7-63,3.4-127.7,14-189.8c10.7-62.2,26-123.6,37.1-185.7c10.9-61.7,18.8-126.2,8.8-188.6
		c-7-43.6-23.2-90.7-69.4-105.1c-38.5-12-81.5-1.7-118.7,10.2c-44.2,14-86.8,33.5-129.2,52.2c-59.7,26.4-117.4,56.7-173.8,89.2
		v518.2h431.3C424.5,1145.5,424.5,1145.3,424.5,1145.1z"/>
	<g class="st5">
		<linearGradient id="SVGID_9_" gradientUnits="userSpaceOnUse" x1="1633.515" y1="864.7535" x2="1640.2286" y2="864.7535">
			<stop  offset="6.413200e-04" style="stop-color:#2F046B"/>
			<stop  offset="0.9969" style="stop-color:#60E8DB"/>
		</linearGradient>
		<circle class="st6" cx="1636.9" cy="864.8" r="3.4"/>
		<linearGradient id="SVGID_10_" gradientUnits="userSpaceOnUse" x1="99.4981" y1="694.211" x2="106.2117" y2="694.211">
			<stop  offset="6.413200e-04" style="stop-color:#2F046B"/>
			<stop  offset="0.9969" style="stop-color:#60E8DB"/>
		</linearGradient>
		<circle class="st7" cx="102.9" cy="694.2" r="3.4"/>
		<linearGradient id="SVGID_11_" gradientUnits="userSpaceOnUse" x1="344.6035" y1="977.463" x2="351.3171" y2="977.463">
			<stop  offset="6.413200e-04" style="stop-color:#2F046B"/>
			<stop  offset="0.9969" style="stop-color:#60E8DB"/>
		</linearGradient>
		<circle class="st8" cx="348" cy="977.5" r="3.4"/>
		<linearGradient id="SVGID_12_" gradientUnits="userSpaceOnUse" x1="311.6941" y1="580.6838" x2="318.4078" y2="580.6838">
			<stop  offset="6.413200e-04" style="stop-color:#2F046B"/>
			<stop  offset="0.9969" style="stop-color:#60E8DB"/>
		</linearGradient>
		<circle class="st9" cx="315.1" cy="580.7" r="3.4"/>
		<linearGradient id="SVGID_13_" gradientUnits="userSpaceOnUse" x1="544.4789" y1="29.2841" x2="551.1926" y2="29.2841">
			<stop  offset="6.413200e-04" style="stop-color:#2F046B"/>
			<stop  offset="0.9969" style="stop-color:#60E8DB"/>
		</linearGradient>
		<circle class="st10" cx="547.8" cy="29.3" r="3.4"/>
		<linearGradient id="SVGID_14_" gradientUnits="userSpaceOnUse" x1="1810.7091" y1="398.0761" x2="1817.4227" y2="398.0761">
			<stop  offset="6.413200e-04" style="stop-color:#2F046B"/>
			<stop  offset="0.9969" style="stop-color:#60E8DB"/>
		</linearGradient>
		<circle class="st11" cx="1814.1" cy="398.1" r="3.4"/>
		<linearGradient id="SVGID_15_" gradientUnits="userSpaceOnUse" x1="802.8546" y1="743.4258" x2="809.5682" y2="743.4258">
			<stop  offset="6.413200e-04" style="stop-color:#2F046B"/>
			<stop  offset="0.9969" style="stop-color:#60E8DB"/>
		</linearGradient>
		<circle class="st12" cx="806.2" cy="743.4" r="3.4"/>
		<linearGradient id="SVGID_16_" gradientUnits="userSpaceOnUse" x1="1651.9645" y1="188.4417" x2="1658.6781" y2="188.4417">
			<stop  offset="6.413200e-04" style="stop-color:#2F046B"/>
			<stop  offset="0.9969" style="stop-color:#60E8DB"/>
		</linearGradient>
		<circle class="st13" cx="1655.3" cy="188.4" r="3.4"/>
		<linearGradient id="SVGID_17_" gradientUnits="userSpaceOnUse" x1="766.0836" y1="320.2132" x2="769.4404" y2="320.2132">
			<stop  offset="6.413200e-04" style="stop-color:#2F046B"/>
			<stop  offset="0.9969" style="stop-color:#60E8DB"/>
		</linearGradient>
		<circle class="st14" cx="767.8" cy="320.2" r="1.7"/>
		<linearGradient id="SVGID_18_" gradientUnits="userSpaceOnUse" x1="1303.071" y1="213.0244" x2="1306.4279" y2="213.0244">
			<stop  offset="6.413200e-04" style="stop-color:#2F046B"/>
			<stop  offset="0.9969" style="stop-color:#60E8DB"/>
		</linearGradient>
		<circle class="st15" cx="1304.7" cy="213" r="1.7"/>
		<linearGradient id="SVGID_19_" gradientUnits="userSpaceOnUse" x1="1247.7424" y1="8.8185" x2="1251.0992" y2="8.8185">
			<stop  offset="6.413200e-04" style="stop-color:#2F046B"/>
			<stop  offset="0.9969" style="stop-color:#60E8DB"/>
		</linearGradient>
		<circle class="st16" cx="1249.4" cy="8.8" r="1.7"/>
		<linearGradient id="SVGID_20_" gradientUnits="userSpaceOnUse" x1="1685.7982" y1="589.6969" x2="1689.155" y2="589.6969">
			<stop  offset="6.413200e-04" style="stop-color:#2F046B"/>
			<stop  offset="0.9969" style="stop-color:#60E8DB"/>
		</linearGradient>
		<circle class="st17" cx="1687.5" cy="589.7" r="1.7"/>
		<linearGradient id="SVGID_21_" gradientUnits="userSpaceOnUse" x1="1517.9569" y1="1017.9645" x2="1521.3137" y2="1017.9645">
			<stop  offset="6.413200e-04" style="stop-color:#2F046B"/>
			<stop  offset="0.9969" style="stop-color:#60E8DB"/>
		</linearGradient>
		<circle class="st18" cx="1519.6" cy="1018" r="1.7"/>
		<linearGradient id="SVGID_22_" gradientUnits="userSpaceOnUse" x1="1227.9718" y1="955.7682" x2="1231.3286" y2="955.7682">
			<stop  offset="6.413200e-04" style="stop-color:#2F046B"/>
			<stop  offset="0.9969" style="stop-color:#60E8DB"/>
		</linearGradient>
		<circle class="st19" cx="1229.7" cy="955.8" r="1.7"/>
		<linearGradient id="SVGID_23_" gradientUnits="userSpaceOnUse" x1="173.5497" y1="1016.2861" x2="176.9065" y2="1016.2861">
			<stop  offset="6.413200e-04" style="stop-color:#2F046B"/>
			<stop  offset="0.9969" style="stop-color:#60E8DB"/>
		</linearGradient>
		<circle class="st20" cx="175.2" cy="1016.3" r="1.7"/>
		<linearGradient id="SVGID_24_" gradientUnits="userSpaceOnUse" x1="815.6444" y1="900.8656" x2="819.0012" y2="900.8656">
			<stop  offset="6.413200e-04" style="stop-color:#2F046B"/>
			<stop  offset="0.9969" style="stop-color:#60E8DB"/>
		</linearGradient>
		<circle class="st21" cx="817.3" cy="900.9" r="1.7"/>
		<linearGradient id="SVGID_25_" gradientUnits="userSpaceOnUse" x1="612.5776" y1="491.787" x2="615.9344" y2="491.787">
			<stop  offset="6.413200e-04" style="stop-color:#2F046B"/>
			<stop  offset="0.9969" style="stop-color:#60E8DB"/>
		</linearGradient>
		<circle class="st22" cx="614.3" cy="491.8" r="1.7"/>
		<linearGradient id="SVGID_26_" gradientUnits="userSpaceOnUse" x1="426.2868" y1="341.5082" x2="429.6436" y2="341.5082">
			<stop  offset="6.413200e-04" style="stop-color:#2F046B"/>
			<stop  offset="0.9969" style="stop-color:#60E8DB"/>
		</linearGradient>
		<circle class="st23" cx="428" cy="341.5" r="1.7"/>
		<linearGradient id="SVGID_27_" gradientUnits="userSpaceOnUse" x1="1843.697" y1="1039.9413" x2="1850.4106" y2="1039.9413">
			<stop  offset="6.413200e-04" style="stop-color:#2F046B"/>
			<stop  offset="0.9969" style="stop-color:#60E8DB"/>
		</linearGradient>
		<circle class="st24" cx="1847.1" cy="1039.9" r="3.4"/>
		<linearGradient id="SVGID_28_" gradientUnits="userSpaceOnUse" x1="82.386" y1="144.0503" x2="89.0996" y2="144.0503">
			<stop  offset="6.413200e-04" style="stop-color:#2F046B"/>
			<stop  offset="0.9969" style="stop-color:#60E8DB"/>
		</linearGradient>
		<circle class="st25" cx="85.7" cy="144.1" r="3.4"/>
		<linearGradient id="SVGID_29_" gradientUnits="userSpaceOnUse" x1="609.2207" y1="1053.6079" x2="615.9344" y2="1053.6079">
			<stop  offset="6.413200e-04" style="stop-color:#2F046B"/>
			<stop  offset="0.9969" style="stop-color:#60E8DB"/>
		</linearGradient>
		<circle class="st26" cx="612.6" cy="1053.6" r="3.4"/>
	</g>
</g>
</svg>
