<?xml version="1.0" encoding="utf-8"?>
<!-- Generator: Adobe Illustrator 21.1.0, SVG Export Plug-In . SVG Version: 6.00 Build 0)  -->
<svg version="1.1" id="Layer_3" xmlns="http://www.w3.org/2000/svg" xmlns:xlink="http://www.w3.org/1999/xlink" x="0px" y="0px"
	 viewBox="0 0 512 512" style="enable-background:new 0 0 512 512;" xml:space="preserve">
<style type="text/css">
	.st0{fill:#FFFFFF;}
	.st1{fill:#21C0F7;}
</style>
<circle class="st0" cx="256" cy="256" r="236"/>
<g>
	<path class="st1" d="M261.7,144.9v-12.5h-11.4v11.4h-11.4v56.9h11.4v11.4h11.4v-12.5c6.6-2.3,11.4-8.6,11.4-16
		c0-4.3-1.6-8.4-4.3-11.4c2.7-3,4.3-7,4.3-11.4C273.1,153.5,268.3,147.2,261.7,144.9z M256,189.3h-5.7V178h5.7
		c3.1,0,5.7,2.6,5.7,5.7C261.7,186.8,259.1,189.3,256,189.3z M256,166.6h-5.7v-11.4h5.7c3.1,0,5.7,2.6,5.7,5.7
		S259.1,166.6,256,166.6z"/>
	<path class="st1" d="M409.7,212.1v-22.8h22.8v-43.1L274.6,52.7h-37.3L79.5,146.2v43.1h22.8v22.8h11.4v125.2h-11.4v23.3
		c-12.9,2.6-22.8,14.2-22.8,27.9v17.1h352.9v-17.1c0-13.7-9.8-25.3-22.8-27.9v-23.3h-11.4V212.1H409.7z M398.3,200.7h-56.9v-11.4
		h56.9V200.7z M398.3,348.7v11.4h-56.9v-11.4H398.3z M330,337.3v22.8h-22.8v-85.4c0-15.7-12.7-28.5-28.5-28.5h-45.5
		c-15.7,0-28.5,12.7-28.5,28.5v85.4H182v-22.8h-11.4V212.1H182v-22.8h13.8c7.5,26.3,31.6,45.5,60.2,45.5s52.7-19.3,60.2-45.5H330
		v22.8h11.4v125.2H330z M216.2,360.1v-85.4c0-9.4,7.7-17.1,17.1-17.1h17.1v102.5H216.2z M261.7,257.6h17.1c9.4,0,17.1,7.7,17.1,17.1
		v85.4h-34.2V257.6z M318.3,178c0.1-1.8,0.3-3.8,0.3-5.7c0-34.5-28.1-62.6-62.6-62.6s-62.6,28.1-62.6,62.6c0,1.9,0.1,3.8,0.3,5.7
		h-87.5L256,89.7L405.8,178H318.3z M307.2,172.3c0,28.2-23,51.2-51.2,51.2s-51.2-23-51.2-51.2s23-51.2,51.2-51.2
		S307.2,144,307.2,172.3z M240.5,64.1h31l149.6,88.7v20.9L256,76.6L90.9,173.7v-21L240.5,64.1z M170.6,189.3v11.4h-56.9v-11.4H170.6
		z M125.1,212.1h11.4v68.3h11.4v-68.3h11.4v125.2h-11.4v-22.8h-11.4v22.8h-11.4V212.1z M170.6,348.7v11.4h-56.9v-11.4H170.6z
		 M421.1,388.6v5.7H90.9v-5.7c0-9.4,7.7-17.1,17.1-17.1h296C413.4,371.5,421.1,379.2,421.1,388.6z M386.9,337.3h-11.4v-22.8h-11.4
		v22.8h-11.4V212.1h11.4v68.3h11.4v-68.3h11.4V337.3z"/>
	<path class="st1" d="M136.5,291.8h11.4v11.4h-11.4V291.8z"/>
	<path class="st1" d="M364.1,291.8h11.4v11.4h-11.4V291.8z"/>
</g>
</svg>
