<?xml version="1.0" encoding="utf-8"?>
<!-- Generator: Adobe Illustrator 21.1.0, SVG Export Plug-In . SVG Version: 6.00 Build 0)  -->
<svg version="1.1" id="Layer_3" xmlns="http://www.w3.org/2000/svg" xmlns:xlink="http://www.w3.org/1999/xlink" x="0px" y="0px"
	 viewBox="0 0 512 512" style="enable-background:new 0 0 512 512;" xml:space="preserve">
<style type="text/css">
	.st0{fill:#FFFFFF;}
	.st1{fill:#21C0F7;}
</style>
<circle class="st0" cx="256" cy="258" r="249"/>
<g>
	<path class="st1" d="M349.4,127.3v-12.5h-12.5v12.5h-12.4v87.2h12.4v12.4h12.5v-12.4c13.7,0,24.9-11.2,24.9-24.9
		c0-7.4-3.3-14.1-8.4-18.7c5.2-4.6,8.4-11.2,8.4-18.7C374.3,138.4,363.1,127.3,349.4,127.3z M349.4,202h-12.5v-24.9h12.5
		c6.9,0,12.5,5.6,12.5,12.4S356.2,202,349.4,202z M349.4,164.6h-12.5v-24.9h12.5c6.9,0,12.5,5.6,12.5,12.4S356.2,164.6,349.4,164.6z
		"/>
	<path class="st1" d="M449,170.9C449,112.5,401.5,65,343.1,65c-43.4,0-80.8,26.3-97.1,63.8c-7.1-0.9-14.2-1.5-21.2-1.5
		C135.6,127.3,63,199.9,63,289.1S135.6,451,224.9,451s161.9-72.6,161.9-161.9c0-7-0.6-14.1-1.5-21.2
		C422.7,251.6,449,214.3,449,170.9L449,170.9z M423.8,164.6c-1.4-17.6-8.3-33.7-19.2-46.4l8.8-8.8c13.1,15,21.5,34.1,22.9,55.2
		H423.8z M343.1,239.3c-37.8,0-68.5-30.7-68.5-68.5s30.7-68.5,68.5-68.5s68.5,30.7,68.5,68.5S380.9,239.3,343.1,239.3z M395.7,109.5
		c-12.7-10.9-28.7-17.9-46.4-19.2V77.8c21.1,1.4,40.2,9.8,55.2,22.9L395.7,109.5z M336.9,90.2c-17.6,1.4-33.7,8.3-46.4,19.2
		l-8.8-8.8c15-13.1,34.1-21.5,55.2-22.9V90.2z M281.8,118.3c-10.9,12.7-17.9,28.7-19.2,46.4h-12.5c1.4-21.1,9.8-40.2,22.9-55.2
		L281.8,118.3z M262.5,177.1c1.4,17.6,8.3,33.7,19.2,46.4l-8.8,8.8c-13.1-15-21.5-34.1-22.9-55.2H262.5z M290.6,232.2
		c12.7,10.9,28.7,17.9,46.4,19.2v12.4c-21.1-1.4-40.2-9.8-55.2-22.9L290.6,232.2z M349.4,251.5c17.6-1.4,33.7-8.3,46.4-19.2l8.8,8.8
		c-15,13.1-34.1,21.5-55.2,22.9V251.5z M404.5,223.4c10.9-12.7,17.9-28.7,19.2-46.4h12.5c-1.4,21.1-9.8,40.2-22.9,55.2L404.5,223.4z
		 M142.4,164.6h63.8c3.4,0,6.2,2.8,6.2,6.2c0,3.4-2.8,6.2-6.2,6.2h-49.8c-10.3,0-18.7,8.4-18.7,18.7s8.4,18.7,18.7,18.7h24.9
		c3.4,0,6.2,2.8,6.2,6.2c0,3.4-2.8,6.2-6.2,6.2H89.1C100.8,201.5,119.4,180,142.4,164.6z M249.8,436.4v-20.7c0-4,1.3-8,3.7-11.2
		l6.2-8.3c3.5-4.7,9.1-7.5,14.9-7.5h30.1c10.9,0,19.7-8.8,19.7-19.7c0-9.7-6.9-17.9-16.5-19.4l-6.5-1.1c-8.3-1.4-14.4-8.5-14.4-17
		c0-5.3,2.4-10.2,6.5-13.4l15.9-12.7c3-2.4,6.9-3.8,10.8-3.8h53.5C368,369.8,316.3,425.2,249.8,436.4L249.8,436.4z M374.3,289.1h-54
		c-6.7,0-13.3,2.3-18.5,6.5l-15.9,12.7c-7.1,5.7-11.1,14.1-11.1,23.2c0,14.6,10.4,26.9,24.8,29.3l6.5,1.1c3.5,0.6,6.1,3.6,6.1,7.2
		c0,4-3.2,7.3-7.3,7.3h-30.1c-9.7,0-19.1,4.7-24.9,12.5l-6.2,8.3c-4,5.3-6.2,12-6.2,18.7V438c-4.1,0.3-8.3,0.6-12.5,0.6
		c-82.4,0-149.4-67-149.4-149.4c0-17.5,3-34.2,8.6-49.8h97.3c10.3,0,18.7-8.4,18.7-18.7c0-10.3-8.4-18.7-18.7-18.7h-24.9
		c-3.4,0-6.2-2.8-6.2-6.2s2.8-6.2,6.2-6.2h49.8c10.3,0,18.7-8.4,18.7-18.7c0-10.3-8.4-18.7-18.7-18.7h-40.9
		c18.3-8,38.4-12.4,59.6-12.4c5.6,0,11.2,0.4,16.9,1.1c-2.8,9.5-4.4,19.6-4.4,30c0,58.4,47.5,105.8,105.8,105.8
		c10.4,0,20.5-1.6,30-4.4C373.8,277.9,374.3,283.6,374.3,289.1L374.3,289.1z"/>
	<path class="st1" d="M211.8,425.5c4.3,0.4,8.7,0.6,13,0.6v-12.5c-3.9,0-7.9-0.2-11.9-0.6L211.8,425.5z"/>
	<path class="st1" d="M100.4,289.1H87.9c0,65.5,46.6,122.1,110.9,134.5l2.4-12.2C142.8,400.1,100.4,348.7,100.4,289.1L100.4,289.1z"
		/>
	<path class="st1" d="M243.6,276.7h-24.9c-1.9,0-3.8-0.9-5-2.5l-11.2-14.9c-3.5-4.7-9.1-7.5-14.9-7.5h-25
		c-13.7,0-24.8,11.1-24.8,24.8c0,10.2,6.1,19.2,15.6,23l11.6,4.7c2.4,1,3.9,3.2,3.9,5.8v4c0,3.4-2.8,6.2-6.2,6.2h-18.7
		c-10.3,0-18.7,8.4-18.7,18.7s8.4,18.7,18.7,18.7h21.1c1.2,0,2.4,0.4,3.5,1l30.2,20.1c3.6,2.4,7.9,3.7,12.3,3.7h4.2
		c12.2,0,22.1-9.9,22.1-22.1c0-7.7-4.1-15-10.7-19L209.2,331c-1.9-1.1-3-3.2-3-5.3v-5.4c0-3.4,2.8-6.2,6.2-6.2h31.1
		c10.3,0,18.7-8.4,18.7-18.7S253.8,276.7,243.6,276.7L243.6,276.7z M243.6,301.6h-31.1c-10.3,0-18.7,8.4-18.7,18.7v5.4
		c0,6.5,3.5,12.7,9.1,16l17.4,10.4c2.9,1.7,4.7,4.9,4.7,8.3c0,5.3-4.3,9.7-9.7,9.7H211c-1.9,0-3.8-0.6-5.4-1.6l-30.2-20.1
		c-3.1-2.1-6.7-3.1-10.4-3.1h-21.1c-3.4,0-6.2-2.8-6.2-6.2s2.8-6.2,6.2-6.2h18.7c10.3,0,18.7-8.4,18.7-18.7v-4
		c0-7.7-4.6-14.5-11.7-17.3l-11.6-4.7c-4.7-1.9-7.8-6.4-7.8-11.5c0-6.8,5.5-12.3,12.3-12.3h25c1.9,0,3.8,0.9,5,2.5l11.2,14.9
		c3.5,4.7,9.1,7.5,14.9,7.5h24.9c3.4,0,6.2,2.8,6.2,6.2S247,301.6,243.6,301.6L243.6,301.6z"/>
</g>
</svg>
